<svg width="203" height="24" viewBox="0 0 203 24" fill="none" xmlns="http://www.w3.org/2000/svg">
<path d="M32.6414 1V22.8182H28.8232V1H32.6414Z" fill="white"/>
<path d="M47.4142 1H51.7689V22.8182H47.9507V5.86319L40.1333 13.5455H45.7689V17.3636H35.4053V13.0089L47.4142 1Z" fill="white"/>
<path d="M58.3143 4.81818V8.74C59.5079 8.01722 60.9079 7.54545 62.4052 7.54545C66.7733 7.54545 70.3143 11.0865 70.3143 15.4545C70.3143 19.8226 66.7733 23.3636 62.4052 23.3636C58.3134 23.3636 54.9473 20.2564 54.5379 16.2727H58.3961C58.7751 18.14 60.426 19.5455 62.4052 19.5455C64.6645 19.5455 66.4961 17.7139 66.4961 15.4545C66.4961 13.1952 64.6645 11.3636 62.4052 11.3636C60.8353 11.3636 59.472 12.2479 58.7861 13.5455H54.4961V1H68.1325V4.81818L58.3143 4.81818Z" fill="white"/>
<path d="M21.9389 1H26.1326V22.8182H21.8798L15.6365 16.5749L18.3363 13.875L22.3144 17.9064V4.91364L4.98644 22.2613L2.83203 20.1069L21.9389 1Z" fill="white"/>
<path fill-rule="evenodd" clip-rule="evenodd" d="M20.4126 1H21.184L2.45479 19.7292L2.06909 19.3435L20.4126 1Z" fill="white"/>
<path fill-rule="evenodd" clip-rule="evenodd" d="M18.8716 1H19.643L1.68428 18.9587L1.29858 18.573L18.8716 1Z" fill="white"/>
<path d="M88.6516 2.36633C88.6798 2.36633 88.6939 2.38746 88.6939 2.42973V5.26171C88.6939 5.28989 88.6798 5.30398 88.6516 5.30398H86.5382C86.51 5.30398 86.4959 5.28989 86.4959 5.26171V2.42973C86.4959 2.38746 86.51 2.36633 86.5382 2.36633H88.6516ZM96.5558 4.24727C96.584 4.24727 96.5981 4.2684 96.5981 4.31067V8.79112C96.5981 8.8193 96.584 8.83339 96.5558 8.83339H94.5481C94.5199 8.83339 94.5058 8.8193 94.5058 8.79112V6.33956H80.684V8.79112C80.684 8.8193 80.67 8.83339 80.6418 8.83339H78.634C78.6058 8.83339 78.5918 8.8193 78.5918 8.79112V4.31067C78.5918 4.2684 78.6058 4.24727 78.634 4.24727H96.5558ZM91.3145 11.3695C91.3145 11.3554 91.3145 11.3413 91.3145 11.3272C91.3286 11.3131 91.3498 11.3061 91.3779 11.3061H93.4068C93.435 11.3061 93.4491 11.3202 93.4491 11.3484C93.435 13.335 92.8855 15.0891 91.8006 16.6108C90.7157 18.1324 89.0673 19.3582 86.8552 20.2881C84.6573 21.2321 81.9239 21.8027 78.6552 22C78.6129 22 78.5918 21.9789 78.5918 21.9366L78.465 19.9077C78.465 19.8654 78.4931 19.8443 78.5495 19.8443C81.5083 19.6611 83.9317 19.2032 85.8197 18.4706C87.7076 17.7379 89.0884 16.7799 89.962 15.5963C90.8496 14.3987 91.3005 12.9898 91.3145 11.3695ZM97.1265 10.2494C97.1687 10.2494 97.1899 10.2635 97.1899 10.2917V12.2994C97.1899 12.3417 97.1687 12.3628 97.1265 12.3628H78.0634C78.0211 12.3628 78 12.3417 78 12.2994V10.2917C78 10.2635 78.0211 10.2494 78.0634 10.2494H97.1265ZM87.447 8.26277C87.4893 8.29095 87.5033 8.31913 87.4893 8.34731L83.8542 14.7721L96.9362 19.9077C96.9644 19.9359 96.9715 19.957 96.9574 19.9711L96.2388 21.8732C96.2106 21.9014 96.1825 21.9084 96.1543 21.8943L80.832 15.8922C80.8179 15.8781 80.8038 15.8711 80.7897 15.8711C80.7897 15.857 80.7968 15.8429 80.8108 15.8288L85.6294 7.26946C85.6576 7.24128 85.6858 7.23424 85.714 7.24833L87.447 8.26277Z" fill="white"/>
<path d="M117.986 19.3582C118.014 19.3582 118.028 19.3723 118.028 19.4005V21.3871C118.028 21.4153 118.014 21.4294 117.986 21.4294H99.4512C99.423 21.4294 99.4089 21.4153 99.4089 21.3871V19.4005C99.4089 19.3723 99.423 19.3582 99.4512 19.3582H117.986ZM114.795 8.89679C114.823 8.89679 114.837 8.91088 114.837 8.93906V10.9257C114.837 10.9539 114.823 10.9679 114.795 10.9679H102.664C102.635 10.9679 102.621 10.9539 102.621 10.9257V8.93906C102.621 8.91088 102.635 8.89679 102.664 8.89679H114.795ZM116.337 13.8845C116.366 13.8845 116.38 13.8986 116.38 13.9267V15.9134C116.38 15.9415 116.366 15.9556 116.337 15.9556H101.121C101.079 15.9556 101.057 15.9415 101.057 15.9134V13.9267C101.057 13.8986 101.079 13.8845 101.121 13.8845H116.337ZM109.765 9.8901C109.793 9.8901 109.807 9.90419 109.807 9.93237V20.4361C109.807 20.4642 109.793 20.4783 109.765 20.4783H107.694C107.665 20.4783 107.651 20.4642 107.651 20.4361V9.93237C107.651 9.90419 107.665 9.8901 107.694 9.8901H109.765ZM110.737 2.57767C110.779 2.59176 110.807 2.60585 110.821 2.61994C111.934 4.01479 113.132 5.32511 114.414 6.5509C115.696 7.77668 117.077 8.92497 118.557 9.99577C118.599 10.024 118.613 10.0451 118.599 10.0592L117.415 11.6654C117.401 11.6936 117.38 11.6936 117.352 11.6654C114.548 9.66467 112.033 7.32582 109.807 4.64882H107.651C105.425 7.32582 102.91 9.66467 100.106 11.6654C100.092 11.6936 100.071 11.6936 100.043 11.6654L98.8595 10.0592C98.8454 10.0451 98.8595 10.024 98.9017 9.99577C100.381 8.92497 101.762 7.77668 103.044 6.5509C104.34 5.31102 105.538 3.99366 106.637 2.5988C106.651 2.58471 106.679 2.57767 106.721 2.57767H110.737Z" fill="white"/>
<path d="M123.46 3.65551C123.488 3.65551 123.502 3.6696 123.502 3.69778V5.72666H138.613C138.641 5.72666 138.655 5.7478 138.655 5.79007V7.81895C138.655 7.86122 138.641 7.88235 138.613 7.88235H121.41C121.396 7.88235 121.381 7.87531 121.367 7.86122C121.367 7.84713 121.367 7.83304 121.367 7.81895V3.69778C121.367 3.6696 121.381 3.65551 121.41 3.65551H123.46ZM137.873 12.236C137.901 12.236 137.915 12.2501 137.915 12.2783V14.3283C137.915 14.3565 137.901 14.3706 137.873 14.3706H121.853C121.825 14.3706 121.811 14.3565 121.811 14.3283V12.2783C121.811 12.2501 121.825 12.236 121.853 12.236H137.873ZM139.31 19.1891C139.338 19.1891 139.353 19.2103 139.353 19.2526V21.2814C139.353 21.3237 139.338 21.3448 139.31 21.3448H120.416C120.388 21.3448 120.374 21.3237 120.374 21.2814V19.2526C120.374 19.2103 120.388 19.1891 120.416 19.1891H139.31ZM130.983 2.49313C131.012 2.49313 131.026 2.50722 131.026 2.5354V20.3093C131.026 20.3374 131.012 20.3515 130.983 20.3515H128.912C128.884 20.3515 128.87 20.3374 128.87 20.3093V2.5354C128.87 2.50722 128.884 2.49313 128.912 2.49313H130.983Z" fill="white"/>
<path d="M144.742 15.2582C144.77 15.2582 144.784 15.2723 144.784 15.3005C144.615 16.3008 144.404 17.2589 144.15 18.1747C143.896 19.0905 143.608 19.9711 143.284 20.8165C143.255 20.8447 143.227 20.8517 143.199 20.8376L141.339 20.1402C141.311 20.112 141.304 20.0838 141.318 20.0557C141.91 18.5622 142.375 16.8644 142.713 14.9623C142.713 14.92 142.727 14.8989 142.755 14.8989L144.742 15.2582ZM152.266 14.1592C152.294 14.1451 152.322 14.1522 152.35 14.1803L153.597 17.8577C153.625 17.8718 153.618 17.8929 153.576 17.9211L151.674 18.5551C151.66 18.5692 151.639 18.5622 151.61 18.534L150.342 14.8778C150.328 14.8496 150.342 14.8214 150.385 14.7932L152.266 14.1592ZM148.377 14.5185C148.419 14.5185 148.44 14.5326 148.44 14.5608V19.6118H154.781V17.9845C154.781 17.9563 154.802 17.9422 154.844 17.9422H156.873C156.915 17.9422 156.936 17.9563 156.936 17.9845V21.6407C156.936 21.6689 156.915 21.683 156.873 21.683H146.348C146.306 21.683 146.285 21.6689 146.285 21.6407V14.5608C146.285 14.5326 146.306 14.5185 146.348 14.5185H148.377ZM159.24 14.8989C159.268 14.8989 159.282 14.913 159.282 14.9412C159.451 15.9274 159.648 16.8362 159.874 17.6675C160.099 18.4847 160.367 19.2807 160.677 20.0557C160.691 20.0838 160.684 20.112 160.656 20.1402L158.796 20.8376C158.768 20.8517 158.74 20.8447 158.712 20.8165C158.049 19.0835 157.549 17.2518 157.211 15.3216C157.211 15.2793 157.225 15.2582 157.253 15.2582L159.24 14.8989ZM152.012 2.5354C152.054 2.5354 152.075 2.54949 152.075 2.57767C152.061 5.39556 151.188 7.74146 149.455 9.61536C147.736 11.4893 145.383 12.9616 142.396 14.0324C142.382 14.0465 142.361 14.0395 142.333 14.0113L141.656 12.1515C141.642 12.1233 141.656 12.1021 141.698 12.0881C144.361 11.1159 146.397 9.87601 147.806 8.36844C149.215 6.86087 149.92 4.93765 149.92 2.5988C149.92 2.58471 149.927 2.57062 149.941 2.55653C149.955 2.54244 149.969 2.5354 149.983 2.5354H152.012ZM159.958 4.43748C159.987 4.43748 160.001 4.45157 160.001 4.47975V6.46636C160.001 6.49454 159.987 6.50863 159.958 6.50863H142.037C142.008 6.50863 141.994 6.49454 141.994 6.46636V4.47975C141.994 4.45157 142.008 4.43748 142.037 4.43748H159.958ZM151.462 10.0169C151.491 10.0028 151.512 10.0169 151.526 10.0592L152.561 12.8912C152.576 12.9052 152.569 12.9264 152.54 12.9546L150.681 13.6309C150.652 13.6449 150.624 13.6309 150.596 13.5886L149.582 10.7566C149.567 10.7425 149.574 10.7214 149.603 10.6932L151.462 10.0169ZM152.371 5.13491C152.385 5.12082 152.406 5.12786 152.435 5.15604C152.942 6.77633 153.851 8.14301 155.161 9.25608C156.485 10.3691 158.197 11.3131 160.297 12.0881C160.339 12.1021 160.353 12.1233 160.339 12.1515L159.663 14.0113C159.634 14.0395 159.613 14.0465 159.599 14.0324C157.232 13.1729 155.245 12.0599 153.639 10.6932C152.047 9.32652 150.969 7.6851 150.406 5.76893C150.392 5.74075 150.399 5.71257 150.427 5.6844L152.371 5.13491Z" fill="white"/>
<path d="M180.839 3.06375C180.867 3.06375 180.881 3.08489 180.881 3.12716V5.13491C180.881 5.17717 180.867 5.19831 180.839 5.19831H163.424C163.396 5.19831 163.382 5.17717 163.382 5.13491V3.12716C163.382 3.08489 163.396 3.06375 163.424 3.06375H180.839ZM181.769 13.3772C181.797 13.3772 181.811 13.3984 181.811 13.4406V15.4484C181.811 15.4907 181.797 15.5118 181.769 15.5118H162.495C162.466 15.5118 162.452 15.4907 162.452 15.4484V13.4406C162.452 13.3984 162.466 13.3772 162.495 13.3772H181.769ZM173.21 4.1416C173.238 4.1416 173.252 4.15569 173.252 4.18387V21.8098C173.252 21.838 173.238 21.8521 173.21 21.8521H171.096C171.068 21.8521 171.054 21.838 171.054 21.8098V4.18387C171.054 4.15569 171.068 4.1416 171.096 4.1416H173.21ZM166.7 6.46636C166.728 6.46636 166.743 6.48045 166.743 6.50863L167.799 11.6654C167.799 11.7076 167.778 11.7288 167.736 11.7288L165.749 12.1092C165.707 12.1092 165.686 12.0951 165.686 12.0669L164.65 6.91018C164.65 6.86791 164.664 6.84678 164.692 6.84678L166.7 6.46636ZM179.571 6.84678C179.599 6.84678 179.613 6.86791 179.613 6.91018L178.578 12.0669C178.578 12.0951 178.557 12.1092 178.514 12.1092L176.528 11.7288C176.485 11.7288 176.464 11.7076 176.464 11.6654L177.521 6.50863C177.521 6.48045 177.535 6.46636 177.563 6.46636L179.571 6.84678Z" fill="white"/>
<path d="M185.214 12.7644C185.214 12.7221 185.235 12.701 185.277 12.701H201.255C201.297 12.701 201.318 12.7221 201.318 12.7644V21.4082C201.318 21.4364 201.297 21.4505 201.255 21.4505H185.277C185.235 21.4505 185.214 21.4364 185.214 21.4082V12.7644ZM199.099 19.3582V14.8144H187.433V19.3582H199.099ZM190.751 2.02818C190.779 2 190.8 1.99296 190.814 2.00705L192.421 3.4019C192.449 3.43008 192.456 3.45122 192.442 3.46531L187.982 8.17823H199.796V5.79007C199.796 5.76189 199.818 5.7478 199.86 5.7478H202.015C202.058 5.7478 202.079 5.76189 202.079 5.79007V10.3128C202.079 10.3269 202.072 10.341 202.058 10.3551C202.058 10.3551 202.044 10.3551 202.015 10.3551H183.1C183.086 10.3551 183.079 10.3551 183.079 10.3551C183.079 10.341 183.079 10.3339 183.079 10.3339C183.079 10.3339 183.079 10.3269 183.079 10.3128L190.751 2.02818Z" fill="white"/>
</svg>
