<svg width="24" height="24" viewBox="0 0 24 24" fill="none" xmlns="http://www.w3.org/2000/svg">
<g id="ModelOutlined">
<g id="Vector">
<path d="M3.65611 8.18265C3.37997 7.70436 3.54385 7.09277 4.02214 6.81663L11.5001 2.49925C11.9783 2.22311 12.5899 2.38699 12.8661 2.86528C13.1422 3.34357 12.9783 3.95516 12.5001 4.2313L5.02214 8.54868C4.54385 8.82482 3.93226 8.66095 3.65611 8.18265Z" fill="#121316"/>
<path d="M11.3506 12.3751C11.1435 12.0163 11.2664 11.5577 11.6251 11.3505L19.103 7.03317C19.4617 6.82607 19.9204 6.94897 20.1275 7.30769C20.3346 7.66641 20.2117 8.1251 19.853 8.33221L12.3751 12.6496C12.0164 12.8567 11.5577 12.7338 11.3506 12.3751Z" fill="#121316"/>
<path d="M11.134 21.0891C10.8579 20.6108 11.0218 19.9992 11.5 19.7231L18.978 15.4057C19.4563 15.1295 20.0678 15.2934 20.344 15.7717C20.6201 16.25 20.4563 16.8616 19.978 17.1377L12.5 21.4551C12.0218 21.7313 11.4102 21.5674 11.134 21.0891Z" fill="#121316"/>
<path d="M11.1341 2.8653C11.4102 2.38701 12.0218 2.22313 12.5001 2.49928L19.978 6.81665C20.4563 7.09279 20.6202 7.70438 20.344 8.18268C20.0679 8.66097 19.4563 8.82484 18.978 8.5487L11.5001 4.23133C11.0218 3.95519 10.8579 3.34359 11.1341 2.8653Z" fill="#121316"/>
<path d="M3.65614 15.8174C3.93229 15.3391 4.54388 15.1752 5.02217 15.4514L12.5001 19.7688C12.9784 20.0449 13.1423 20.6565 12.8661 21.1348C12.59 21.6131 11.9784 21.7769 11.5001 21.5008L4.02217 17.1834C3.54388 16.9073 3.38 16.2957 3.65614 15.8174Z" fill="#121316"/>
<path d="M3.87262 7.30765C4.07973 6.94894 4.53842 6.82603 4.89714 7.03314L12.3751 11.3505C12.7338 11.5576 12.8567 12.0163 12.6496 12.375C12.4425 12.7337 11.9838 12.8567 11.6251 12.6495L4.14714 8.33217C3.78842 8.12507 3.66551 7.66637 3.87262 7.30765Z" fill="#121316"/>
<path d="M4.52214 6.68265C5.07442 6.68265 5.52214 7.13037 5.52214 7.68265L5.52214 16.3174C5.52214 16.8697 5.07442 17.3174 4.52214 17.3174C3.96985 17.3174 3.52214 16.8697 3.52214 16.3174L3.52214 7.68265C3.52214 7.13037 3.96985 6.68265 4.52214 6.68265Z" fill="#121316"/>
<path d="M19.478 6.68265C20.0303 6.68265 20.478 7.13037 20.478 7.68265L20.478 16.2946C20.478 16.8469 20.0303 17.2946 19.478 17.2946C18.9258 17.2946 18.478 16.8469 18.478 16.2946V7.68265C18.478 7.13037 18.9258 6.68265 19.478 6.68265Z" fill="#121316"/>
<path d="M12 11.2501C12.4143 11.2501 12.75 11.5859 12.75 12.0001V20.5891C12.75 21.0033 12.4143 21.3391 12 21.3391C11.5858 21.3391 11.25 21.0033 11.25 20.5891L11.25 12.0001C11.25 11.5859 11.5858 11.2501 12 11.2501Z" fill="#121316"/>
<path d="M12 6.18265C12.4143 6.18265 12.75 6.51844 12.75 6.93265V8.43265C12.75 8.84687 12.4143 9.18265 12 9.18265C11.5858 9.18265 11.25 8.84687 11.25 8.43265V6.93265C11.25 6.51844 11.5858 6.18265 12 6.18265Z" fill="#121316"/>
<path d="M14.4399 13.3859C14.647 13.0272 15.1057 12.9043 15.4645 13.1114L16.7635 13.8614C17.1222 14.0685 17.2451 14.5272 17.038 14.8859C16.8309 15.2446 16.3722 15.3675 16.0135 15.1604L14.7145 14.4104C14.3557 14.2033 14.2328 13.7446 14.4399 13.3859Z" fill="#121316"/>
<path d="M9.56015 13.3859C9.76725 13.7446 9.64435 14.2033 9.28563 14.4104L7.98659 15.1604C7.62787 15.3675 7.16918 15.2446 6.96207 14.8859C6.75496 14.5272 6.87787 14.0685 7.23659 13.8614L8.53563 13.1114C8.89435 12.9043 9.35304 13.0272 9.56015 13.3859Z" fill="#121316"/>
</g>
</g>
</svg>
