<svg width="190" height="24" viewBox="0 0 190 24" fill="none" xmlns="http://www.w3.org/2000/svg">
<path d="M35.6385 1V22.8182H31.8203V1H35.6385Z" fill="white"/>
<path d="M50.4113 1H54.766V22.8182H50.9478V5.86319L43.1304 13.5455H48.766V17.3636H38.4023V13.0089L50.4113 1Z" fill="white"/>
<path d="M61.3143 4.81818V8.74C62.5079 8.01722 63.9079 7.54545 65.4052 7.54545C69.7733 7.54545 73.3143 11.0865 73.3143 15.4545C73.3143 19.8226 69.7733 23.3636 65.4052 23.3636C61.3134 23.3636 57.9473 20.2564 57.5379 16.2727H61.3961C61.7751 18.14 63.426 19.5455 65.4052 19.5455C67.6645 19.5455 69.4961 17.7139 69.4961 15.4545C69.4961 13.1952 67.6645 11.3636 65.4052 11.3636C63.8353 11.3636 62.472 12.2479 61.7861 13.5455H57.4961V1H71.1325V4.81818L61.3143 4.81818Z" fill="white"/>
<path d="M24.9389 1H29.1326V22.8182H24.8798L18.6365 16.5749L21.3363 13.875L25.3144 17.9064V4.91364L7.98644 22.2613L5.83203 20.1069L24.9389 1Z" fill="white"/>
<path fill-rule="evenodd" clip-rule="evenodd" d="M23.4099 1H24.1813L5.4521 19.7292L5.06641 19.3435L23.4099 1Z" fill="white"/>
<path fill-rule="evenodd" clip-rule="evenodd" d="M21.8699 1H22.6413L4.68257 18.9587L4.29688 18.573L21.8699 1Z" fill="white"/>
<path d="M84.745 9.408C84.657 9.416 84.521 9.42 84.337 9.42C83.257 9.42 82.297 9.188 81.457 8.724V6.96C81.897 7.232 82.381 7.46 82.909 7.644C83.437 7.828 83.917 7.92 84.349 7.92C84.701 7.92 84.977 7.832 85.177 7.656C85.385 7.48 85.489 7.28 85.489 7.056C85.489 6.744 85.369 6.46 85.129 6.204C84.889 5.94 84.505 5.728 83.977 5.568C83.369 5.376 82.893 5.184 82.549 4.992C82.213 4.792 81.957 4.544 81.781 4.248C81.613 3.952 81.529 3.576 81.529 3.12C81.529 2.688 81.633 2.296 81.841 1.944C82.049 1.584 82.353 1.296 82.753 1.08C83.161 0.864 83.645 0.744 84.205 0.72C84.277 0.712 84.389 0.707999 84.541 0.707999C84.957 0.707999 85.373 0.752 85.789 0.84C86.213 0.92 86.569 1.024 86.857 1.152V2.7C86.545 2.564 86.181 2.452 85.765 2.364C85.349 2.276 84.981 2.232 84.661 2.232C84.253 2.232 83.941 2.304 83.725 2.448C83.509 2.592 83.401 2.792 83.401 3.048C83.401 3.28 83.517 3.488 83.749 3.672C83.981 3.856 84.341 4.032 84.829 4.2C85.413 4.368 85.889 4.56 86.257 4.776C86.625 4.984 86.913 5.26 87.121 5.604C87.329 5.94 87.433 6.364 87.433 6.876C87.433 7.364 87.321 7.796 87.097 8.172C86.873 8.548 86.557 8.844 86.149 9.06C85.749 9.268 85.281 9.384 84.745 9.408Z" fill="white"/>
<path d="M91.1813 9.42C90.5733 9.42 90.0413 9.276 89.5853 8.988C89.1373 8.7 88.7893 8.304 88.5413 7.8C88.3013 7.296 88.1813 6.708 88.1813 6.036C88.1813 5.372 88.3013 4.784 88.5413 4.272C88.7893 3.752 89.1333 3.348 89.5733 3.06C90.0213 2.772 90.5413 2.628 91.1333 2.628C91.4053 2.628 91.6773 2.68 91.9493 2.784C92.2293 2.88 92.4893 3.016 92.7293 3.192V2.784H94.6493V7.752C94.6493 8.4 94.7293 8.904 94.8893 9.264H93.0893C93.0333 9.152 92.9853 9.008 92.9453 8.832C92.4493 9.224 91.8613 9.42 91.1813 9.42ZM90.0173 6.036C90.0173 6.404 90.0893 6.74 90.2333 7.044C90.3853 7.348 90.5813 7.592 90.8213 7.776C91.0693 7.952 91.3293 8.04 91.6013 8.04C91.7933 8.04 92.0093 8 92.2493 7.92C92.4893 7.832 92.6973 7.648 92.8733 7.368V4.68C92.6973 4.4 92.4893 4.22 92.2493 4.14C92.0173 4.06 91.8013 4.02 91.6013 4.02C91.3293 4.02 91.0693 4.108 90.8213 4.284C90.5813 4.46 90.3853 4.704 90.2333 5.016C90.0893 5.32 90.0173 5.66 90.0173 6.036Z" fill="white"/>
<path d="M96.475 4.248H95.335V2.784H96.475V1.932C96.475 1.42 96.543 1.028 96.679 0.756C96.823 0.476 97.063 0.28 97.399 0.168C97.743 0.056 98.191 0 98.743 0C98.911 0 99.091 0.0079999 99.283 0.0239997C99.475 0.0319996 99.647 0.0439997 99.799 0.0599999V1.512C99.735 1.496 99.627 1.484 99.475 1.476C99.323 1.468 99.187 1.464 99.067 1.464C98.883 1.464 98.743 1.488 98.647 1.536C98.551 1.576 98.483 1.656 98.443 1.776C98.411 1.896 98.395 2.072 98.395 2.304V2.784H99.979V4.248H98.395V9.264H96.475V4.248Z" fill="white"/>
<path d="M106.548 8.916C106.244 9.1 105.888 9.236 105.48 9.324C105.08 9.412 104.692 9.456 104.316 9.456C103.036 9.456 102.064 9.152 101.4 8.544C100.744 7.936 100.416 7.084 100.416 5.988C100.416 4.9 100.708 4.068 101.292 3.492C101.884 2.908 102.688 2.616 103.704 2.616C104.712 2.616 105.508 2.908 106.092 3.492C106.684 4.068 106.98 4.9 106.98 5.988C106.98 6.108 106.972 6.28 106.956 6.504H102.288C102.464 7.536 103.14 8.052 104.316 8.052C105.14 8.052 105.884 7.808 106.548 7.32V8.916ZM105.168 5.16C105.064 4.76 104.884 4.464 104.628 4.272C104.372 4.08 104.064 3.984 103.704 3.984C103.368 3.984 103.08 4.084 102.84 4.284C102.608 4.484 102.444 4.776 102.348 5.16H105.168Z" fill="white"/>
<path d="M108.449 2.784V0.936H110.249V2.784H111.497V4.248H110.249V7.032C110.249 7.264 110.265 7.44 110.297 7.56C110.337 7.68 110.405 7.764 110.501 7.812C110.597 7.852 110.737 7.872 110.921 7.872C111.041 7.872 111.141 7.868 111.221 7.86C111.309 7.852 111.385 7.84 111.449 7.824V9.3C111.113 9.34 110.801 9.36 110.513 9.36C109.961 9.36 109.549 9.304 109.277 9.192C109.005 9.08 108.797 8.888 108.653 8.616C108.517 8.336 108.449 7.94 108.449 7.428V4.248H107.513V2.784H108.449Z" fill="white"/>
<path d="M116.659 9.42C116.395 10.26 115.935 10.888 115.279 11.304C114.623 11.736 113.651 11.968 112.363 12V10.452C112.907 10.452 113.379 10.392 113.779 10.272C114.147 10.152 114.415 9.992 114.583 9.792C114.759 9.592 114.891 9.332 114.979 9.012L115.135 8.46H114.079L111.739 2.784H113.695L115.447 7.332L116.719 2.784H118.711L116.659 9.42Z" fill="white"/>
<path d="M122.549 0.864H128.453V2.496H124.529V4.296H127.937V5.82H124.529V7.632H128.453V9.264H122.549V0.864Z" fill="white"/>
<path d="M134.814 9.048C134.198 9.296 133.566 9.42 132.918 9.42C132.238 9.42 131.61 9.284 131.034 9.012C130.466 8.732 130.014 8.34 129.678 7.836C129.342 7.324 129.174 6.736 129.174 6.072C129.174 5.376 129.334 4.768 129.654 4.248C129.974 3.728 130.41 3.332 130.962 3.06C131.522 2.78 132.146 2.64 132.834 2.64C133.458 2.64 134.09 2.752 134.73 2.976V4.452C134.242 4.244 133.742 4.14 133.23 4.14C132.598 4.14 132.074 4.292 131.658 4.596C131.242 4.892 131.034 5.384 131.034 6.072C131.034 6.464 131.142 6.796 131.358 7.068C131.574 7.34 131.854 7.548 132.198 7.692C132.542 7.828 132.906 7.896 133.29 7.896C133.586 7.896 133.866 7.856 134.13 7.776C134.402 7.688 134.63 7.568 134.814 7.416V9.048Z" fill="white"/>
<path d="M138.945 9.42C138.265 9.42 137.665 9.28 137.145 9C136.633 8.72 136.237 8.324 135.957 7.812C135.677 7.292 135.537 6.68 135.537 5.976C135.537 4.896 135.841 4.068 136.449 3.492C137.057 2.916 137.889 2.628 138.945 2.628C139.993 2.628 140.821 2.916 141.429 3.492C142.037 4.068 142.341 4.896 142.341 5.976C142.341 6.68 142.201 7.292 141.921 7.812C141.641 8.324 141.245 8.72 140.733 9C140.221 9.28 139.625 9.42 138.945 9.42ZM137.433 5.976C137.433 6.592 137.573 7.088 137.853 7.464C138.133 7.84 138.497 8.028 138.945 8.028C139.393 8.028 139.753 7.84 140.025 7.464C140.305 7.088 140.445 6.592 140.445 5.976C140.445 5.336 140.309 4.852 140.037 4.524C139.773 4.188 139.409 4.02 138.945 4.02C138.481 4.02 138.113 4.188 137.841 4.524C137.569 4.852 137.433 5.336 137.433 5.976Z" fill="white"/>
<path d="M145.904 9.408C145.416 9.432 144.92 9.392 144.416 9.288C143.92 9.192 143.488 9.04 143.12 8.832V7.104C143.448 7.344 143.84 7.544 144.296 7.704C144.76 7.856 145.168 7.92 145.52 7.896C145.768 7.88 145.948 7.828 146.06 7.74C146.172 7.644 146.236 7.548 146.252 7.452C146.292 7.204 146.232 7.016 146.072 6.888C145.912 6.76 145.612 6.636 145.172 6.516C144.684 6.38 144.296 6.224 144.008 6.048C143.72 5.864 143.5 5.66 143.348 5.436C143.204 5.204 143.132 4.912 143.132 4.56C143.132 4.192 143.228 3.864 143.42 3.576C143.612 3.28 143.916 3.048 144.332 2.88C144.748 2.712 145.196 2.628 145.676 2.628C146.036 2.628 146.4 2.664 146.768 2.736C147.136 2.8 147.444 2.888 147.692 3V4.548C147.436 4.42 147.132 4.308 146.78 4.212C146.436 4.108 146.136 4.056 145.88 4.056C145.336 4.056 145.04 4.2 144.992 4.488C144.968 4.656 145.044 4.804 145.22 4.932C145.404 5.06 145.664 5.176 146 5.28C146.48 5.432 146.872 5.588 147.176 5.748C147.488 5.908 147.732 6.116 147.908 6.372C148.084 6.628 148.172 6.956 148.172 7.356C148.172 7.948 147.96 8.432 147.536 8.808C147.112 9.176 146.568 9.376 145.904 9.408Z" fill="white"/>
<path d="M153.362 9.42C153.098 10.26 152.638 10.888 151.982 11.304C151.326 11.736 150.354 11.968 149.066 12V10.452C149.61 10.452 150.082 10.392 150.482 10.272C150.85 10.152 151.118 9.992 151.286 9.792C151.462 9.592 151.594 9.332 151.682 9.012L151.838 8.46H150.782L148.442 2.784H150.398L152.15 7.332L153.422 2.784H155.414L153.362 9.42Z" fill="white"/>
<path d="M158.619 9.408C158.131 9.432 157.635 9.392 157.131 9.288C156.635 9.192 156.203 9.04 155.835 8.832V7.104C156.163 7.344 156.555 7.544 157.011 7.704C157.475 7.856 157.883 7.92 158.235 7.896C158.483 7.88 158.663 7.828 158.775 7.74C158.887 7.644 158.951 7.548 158.967 7.452C159.007 7.204 158.947 7.016 158.787 6.888C158.627 6.76 158.327 6.636 157.887 6.516C157.399 6.38 157.011 6.224 156.723 6.048C156.435 5.864 156.215 5.66 156.063 5.436C155.919 5.204 155.847 4.912 155.847 4.56C155.847 4.192 155.943 3.864 156.135 3.576C156.327 3.28 156.631 3.048 157.047 2.88C157.463 2.712 157.911 2.628 158.391 2.628C158.751 2.628 159.115 2.664 159.483 2.736C159.851 2.8 160.159 2.888 160.407 3V4.548C160.151 4.42 159.847 4.308 159.495 4.212C159.151 4.108 158.851 4.056 158.595 4.056C158.051 4.056 157.755 4.2 157.707 4.488C157.683 4.656 157.759 4.804 157.935 4.932C158.119 5.06 158.379 5.176 158.715 5.28C159.195 5.432 159.587 5.588 159.891 5.748C160.203 5.908 160.447 6.116 160.623 6.372C160.799 6.628 160.887 6.956 160.887 7.356C160.887 7.948 160.675 8.432 160.251 8.808C159.827 9.176 159.283 9.376 158.619 9.408Z" fill="white"/>
<path d="M162.261 2.784V0.936H164.061V2.784H165.309V4.248H164.061V7.032C164.061 7.264 164.077 7.44 164.109 7.56C164.149 7.68 164.217 7.764 164.313 7.812C164.409 7.852 164.549 7.872 164.733 7.872C164.853 7.872 164.953 7.868 165.033 7.86C165.121 7.852 165.197 7.84 165.261 7.824V9.3C164.925 9.34 164.613 9.36 164.325 9.36C163.773 9.36 163.361 9.304 163.089 9.192C162.817 9.08 162.609 8.888 162.465 8.616C162.329 8.336 162.261 7.94 162.261 7.428V4.248H161.325V2.784H162.261Z" fill="white"/>
<path d="M172.044 8.916C171.74 9.1 171.384 9.236 170.976 9.324C170.576 9.412 170.188 9.456 169.812 9.456C168.532 9.456 167.56 9.152 166.896 8.544C166.24 7.936 165.912 7.084 165.912 5.988C165.912 4.9 166.204 4.068 166.788 3.492C167.38 2.908 168.184 2.616 169.2 2.616C170.208 2.616 171.004 2.908 171.588 3.492C172.18 4.068 172.476 4.9 172.476 5.988C172.476 6.108 172.468 6.28 172.452 6.504H167.784C167.96 7.536 168.636 8.052 169.812 8.052C170.636 8.052 171.38 7.808 172.044 7.32V8.916ZM170.664 5.16C170.56 4.76 170.38 4.464 170.124 4.272C169.868 4.08 169.56 3.984 169.2 3.984C168.864 3.984 168.576 4.084 168.336 4.284C168.104 4.484 167.94 4.776 167.844 5.16H170.664Z" fill="white"/>
<path d="M175.361 2.772V3.456C175.649 3.224 175.969 3.044 176.321 2.916C176.673 2.788 177.029 2.724 177.389 2.724C177.749 2.724 178.061 2.792 178.325 2.928C178.589 3.056 178.797 3.236 178.949 3.468C179.245 3.228 179.569 3.044 179.921 2.916C180.273 2.788 180.629 2.724 180.989 2.724C181.597 2.724 182.065 2.904 182.393 3.264C182.721 3.624 182.885 4.092 182.885 4.668V9.264H180.965V4.992C180.965 4.76 180.885 4.572 180.725 4.428C180.573 4.276 180.369 4.2 180.113 4.2C180.001 4.2 179.869 4.224 179.717 4.272C179.565 4.32 179.417 4.384 179.273 4.464C179.281 4.512 179.285 4.58 179.285 4.668V9.264H177.365V4.992C177.365 4.76 177.285 4.572 177.125 4.428C176.973 4.276 176.769 4.2 176.513 4.2C176.361 4.2 176.173 4.244 175.949 4.332C175.725 4.42 175.529 4.536 175.361 4.68V9.264H173.441V2.772H175.361Z" fill="white"/>
<path d="M85.741 14.864C86.621 14.864 87.313 15.1 87.817 15.572C88.329 16.044 88.585 16.716 88.585 17.588C88.585 18.452 88.329 19.12 87.817 19.592C87.313 20.064 86.621 20.3 85.741 20.3H83.701V23.264H81.721V14.864H85.741ZM85.561 18.716C85.961 18.716 86.269 18.608 86.485 18.392C86.701 18.176 86.809 17.908 86.809 17.588C86.809 17.26 86.701 16.988 86.485 16.772C86.269 16.556 85.961 16.448 85.561 16.448H83.701V18.716H85.561Z" fill="white"/>
<path d="M91.7303 23.36C91.0103 23.36 90.4663 23.16 90.0983 22.76C89.7303 22.352 89.5463 21.756 89.5463 20.972V14.036H91.4663V20.492C91.4663 20.812 91.4903 21.056 91.5383 21.224C91.5863 21.392 91.6663 21.52 91.7783 21.608C91.8663 21.68 91.9623 21.728 92.0663 21.752C92.1783 21.768 92.3703 21.776 92.6423 21.776V23.36H91.7303Z" fill="white"/>
<path d="M96.1267 23.42C95.5187 23.42 94.9867 23.276 94.5307 22.988C94.0827 22.7 93.7347 22.304 93.4867 21.8C93.2467 21.296 93.1267 20.708 93.1267 20.036C93.1267 19.372 93.2467 18.784 93.4867 18.272C93.7347 17.752 94.0787 17.348 94.5187 17.06C94.9667 16.772 95.4867 16.628 96.0787 16.628C96.3507 16.628 96.6227 16.68 96.8947 16.784C97.1747 16.88 97.4347 17.016 97.6747 17.192V16.784H99.5947V21.752C99.5947 22.4 99.6747 22.904 99.8347 23.264H98.0347C97.9787 23.152 97.9307 23.008 97.8907 22.832C97.3947 23.224 96.8067 23.42 96.1267 23.42ZM94.9627 20.036C94.9627 20.404 95.0347 20.74 95.1787 21.044C95.3307 21.348 95.5267 21.592 95.7667 21.776C96.0147 21.952 96.2747 22.04 96.5467 22.04C96.7387 22.04 96.9547 22 97.1947 21.92C97.4347 21.832 97.6427 21.648 97.8187 21.368V18.68C97.6427 18.4 97.4347 18.22 97.1947 18.14C96.9627 18.06 96.7467 18.02 96.5467 18.02C96.2747 18.02 96.0147 18.108 95.7667 18.284C95.5267 18.46 95.3307 18.704 95.1787 19.016C95.0347 19.32 94.9627 19.66 94.9627 20.036Z" fill="white"/>
<path d="M101.3 16.784V14.936H103.1V16.784H104.348V18.248H103.1V21.032C103.1 21.264 103.116 21.44 103.148 21.56C103.188 21.68 103.256 21.764 103.352 21.812C103.448 21.852 103.588 21.872 103.772 21.872C103.892 21.872 103.992 21.868 104.072 21.86C104.16 21.852 104.236 21.84 104.3 21.824V23.3C103.964 23.34 103.652 23.36 103.364 23.36C102.812 23.36 102.4 23.304 102.128 23.192C101.856 23.08 101.648 22.888 101.504 22.616C101.368 22.336 101.3 21.94 101.3 21.428V18.248H100.364V16.784H101.3Z" fill="white"/>
<path d="M105.815 18.248H104.675V16.784H105.815V15.932C105.815 15.42 105.883 15.028 106.019 14.756C106.163 14.476 106.403 14.28 106.739 14.168C107.083 14.056 107.531 14 108.083 14C108.251 14 108.431 14.008 108.623 14.024C108.815 14.032 108.987 14.044 109.139 14.06V15.512C109.075 15.496 108.967 15.484 108.815 15.476C108.663 15.468 108.527 15.464 108.407 15.464C108.223 15.464 108.083 15.488 107.987 15.536C107.891 15.576 107.823 15.656 107.783 15.776C107.751 15.896 107.735 16.072 107.735 16.304V16.784H109.319V18.248H107.735V23.264H105.815V18.248Z" fill="white"/>
<path d="M113.164 23.42C112.484 23.42 111.884 23.28 111.364 23C110.852 22.72 110.456 22.324 110.176 21.812C109.896 21.292 109.756 20.68 109.756 19.976C109.756 18.896 110.06 18.068 110.668 17.492C111.276 16.916 112.108 16.628 113.164 16.628C114.212 16.628 115.04 16.916 115.648 17.492C116.256 18.068 116.56 18.896 116.56 19.976C116.56 20.68 116.42 21.292 116.14 21.812C115.86 22.324 115.464 22.72 114.952 23C114.44 23.28 113.844 23.42 113.164 23.42ZM111.652 19.976C111.652 20.592 111.792 21.088 112.072 21.464C112.352 21.84 112.716 22.028 113.164 22.028C113.612 22.028 113.972 21.84 114.244 21.464C114.524 21.088 114.664 20.592 114.664 19.976C114.664 19.336 114.528 18.852 114.256 18.524C113.992 18.188 113.628 18.02 113.164 18.02C112.7 18.02 112.332 18.188 112.06 18.524C111.788 18.852 111.652 19.336 111.652 19.976Z" fill="white"/>
<path d="M119.439 16.784V17.48C119.647 17.256 119.895 17.084 120.183 16.964C120.479 16.836 120.771 16.772 121.059 16.772C121.259 16.772 121.447 16.8 121.623 16.856V18.332C121.399 18.276 121.187 18.248 120.987 18.248C120.683 18.248 120.395 18.3 120.123 18.404C119.851 18.5 119.623 18.656 119.439 18.872V23.264H117.519V16.784H119.439Z" fill="white"/>
<path d="M124.337 16.772V17.456C124.625 17.224 124.945 17.044 125.297 16.916C125.649 16.788 126.005 16.724 126.365 16.724C126.725 16.724 127.037 16.792 127.301 16.928C127.565 17.056 127.773 17.236 127.925 17.468C128.221 17.228 128.545 17.044 128.897 16.916C129.249 16.788 129.605 16.724 129.965 16.724C130.573 16.724 131.041 16.904 131.369 17.264C131.697 17.624 131.861 18.092 131.861 18.668V23.264H129.941V18.992C129.941 18.76 129.861 18.572 129.701 18.428C129.549 18.276 129.345 18.2 129.089 18.2C128.977 18.2 128.845 18.224 128.693 18.272C128.541 18.32 128.393 18.384 128.249 18.464C128.257 18.512 128.261 18.58 128.261 18.668V23.264H126.341V18.992C126.341 18.76 126.261 18.572 126.101 18.428C125.949 18.276 125.745 18.2 125.489 18.2C125.337 18.2 125.149 18.244 124.925 18.332C124.701 18.42 124.505 18.536 124.337 18.68V23.264H122.417V16.772H124.337Z" fill="white"/>
</svg>
