<svg width="308" height="114" viewBox="0 0 308 114" fill="none" xmlns="http://www.w3.org/2000/svg">
<g filter="url(#filter0_d_427_4912)">
<path d="M140.007 7.00049V95.9096H126.098V7.00049H140.007Z" fill="white" stroke="white" stroke-width="2"/>
<path d="M202.975 7.00049H219.705V95.9096H205.796V26.2638V23.879L204.095 25.5505L171.523 57.56L169.779 59.2732H172.224H194.705V73.1823H153.523V56.4519L202.975 7.00049Z" fill="white" stroke="white" stroke-width="2"/>
<path d="M247.975 20.9096H246.975V21.9096V38.2505V40.0251L248.493 39.1059C253.338 36.1722 258.995 34.2732 265.021 34.2732C282.669 34.2732 296.976 48.5798 296.976 66.2278C296.976 83.8758 282.669 98.1823 265.021 98.1823C248.869 98.1823 235.515 86.1979 233.368 70.6369H247.518C249.486 78.4717 256.575 84.2732 265.021 84.2732C274.987 84.2732 283.066 76.194 283.066 66.2278C283.066 56.2615 274.987 48.1823 265.021 48.1823C258.312 48.1823 252.46 51.8438 249.351 57.2732H233.066V7.00049H287.885V20.9096L247.975 20.9096Z" fill="white" stroke="white" stroke-width="2"/>
<path d="M96.5805 95.9096L71.5668 70.8959L81.3973 61.0654L97.2656 77.1461L98.9774 78.8808V76.4437V22.3073V19.8912L97.2699 21.6006L25.7771 93.1745L18.215 85.6124L96.8269 7.00049H112.886V95.9096H96.5805Z" fill="white" stroke="white" stroke-width="2"/>
<mask id="path-5-inside-1_427_4912" fill="white">
<path fill-rule="evenodd" clip-rule="evenodd" d="M90.0528 6H93.2669L15.2282 84.0388L13.6211 82.4317L90.0528 6Z"/>
</mask>
<path fill-rule="evenodd" clip-rule="evenodd" d="M90.0528 6H93.2669L15.2282 84.0388L13.6211 82.4317L90.0528 6Z" fill="white"/>
<path d="M90.0528 6V4H89.2244L88.6386 4.58579L90.0528 6ZM93.2669 6L94.6812 7.41421L98.0954 4H93.2669V6ZM15.2282 84.0388L13.8139 85.453L15.2282 86.8672L16.6424 85.453L15.2282 84.0388ZM13.6211 82.4317L12.2069 81.0175L10.7927 82.4317L12.2069 83.8459L13.6211 82.4317ZM90.0528 8H93.2669V4H90.0528V8ZM91.8527 4.58579L13.8139 82.6246L16.6424 85.453L94.6812 7.41421L91.8527 4.58579ZM16.6424 82.6246L15.0353 81.0175L12.2069 83.8459L13.8139 85.453L16.6424 82.6246ZM15.0353 83.8459L91.467 7.41421L88.6386 4.58579L12.2069 81.0175L15.0353 83.8459Z" fill="white" mask="url(#path-5-inside-1_427_4912)"/>
<mask id="path-7-inside-2_427_4912" fill="white">
<path fill-rule="evenodd" clip-rule="evenodd" d="M83.6318 6H86.846L12.0172 80.8287L10.4102 79.2217L83.6318 6Z"/>
</mask>
<path fill-rule="evenodd" clip-rule="evenodd" d="M83.6318 6H86.846L12.0172 80.8287L10.4102 79.2217L83.6318 6Z" fill="white"/>
<path d="M83.6318 6V4H82.8034L82.2176 4.58579L83.6318 6ZM86.846 6L88.2602 7.41421L91.6744 4H86.846V6ZM12.0172 80.8287L10.603 82.243L12.0172 83.6572L13.4314 82.243L12.0172 80.8287ZM10.4102 79.2217L8.99594 77.8075L7.58173 79.2217L8.99594 80.6359L10.4102 79.2217ZM83.6318 8H86.846V4H83.6318V8ZM85.4318 4.58579L10.603 79.4145L13.4314 82.243L88.2602 7.41421L85.4318 4.58579ZM13.4314 79.4145L11.8244 77.8075L8.99594 80.6359L10.603 82.243L13.4314 79.4145ZM11.8244 80.6359L85.0461 7.41421L82.2176 4.58579L8.99594 77.8075L11.8244 80.6359Z" fill="white" mask="url(#path-7-inside-2_427_4912)"/>
</g>
<defs>
<filter id="filter0_d_427_4912" x="0.410156" y="0" width="307.566" height="113.182" filterUnits="userSpaceOnUse" color-interpolation-filters="sRGB">
<feFlood flood-opacity="0" result="BackgroundImageFix"/>
<feColorMatrix in="SourceAlpha" type="matrix" values="0 0 0 0 0 0 0 0 0 0 0 0 0 0 0 0 0 0 127 0" result="hardAlpha"/>
<feOffset dy="4"/>
<feGaussianBlur stdDeviation="5"/>
<feComposite in2="hardAlpha" operator="out"/>
<feColorMatrix type="matrix" values="0 0 0 0 0.0196078 0 0 0 0 0.0823529 0 0 0 0 0.211765 0 0 0 0.45 0"/>
<feBlend mode="normal" in2="BackgroundImageFix" result="effect1_dropShadow_427_4912"/>
<feBlend mode="normal" in="SourceGraphic" in2="effect1_dropShadow_427_4912" result="shape"/>
</filter>
</defs>
</svg>
